<svg width="14" height="14" viewBox="0 0 14 14" fill="none" xmlns="http://www.w3.org/2000/svg">
<path d="M6.04668 3.60303C5.79512 3.96396 5.37512 4.20021 4.90043 4.20021C4.85887 4.20021 4.81949 4.19803 4.77793 4.19584L5.41668 5.56303C4.8523 6.00271 4.44105 6.62834 4.27918 7.35021H2.6123C2.73043 7.55584 2.80043 7.79428 2.80043 8.05021C2.80043 8.30615 2.73262 8.54459 2.6123 8.75021H4.27699C4.59637 10.1524 5.8498 11.2002 7.34824 11.2002C8.24074 11.2002 9.04793 10.8283 9.62105 10.2312L11.2004 11.1762C11.2092 10.6599 11.4979 10.2115 11.9201 9.97521L10.3451 9.03021C10.4457 8.72178 10.5004 8.39146 10.5004 8.05021C10.5004 7.60615 10.4086 7.18178 10.2423 6.79896L12.0361 5.48209C11.5876 5.28521 11.2639 4.85865 11.2092 4.35334L9.41324 5.67021C8.8598 5.19115 8.14012 4.90021 7.35043 4.90021C7.12293 4.90021 6.89981 4.92428 6.68543 4.97021L6.04668 3.60303ZM7.35043 7.00021C7.62891 7.00021 7.89598 7.11084 8.09289 7.30775C8.28981 7.50467 8.40043 7.77174 8.40043 8.05021C8.40043 8.32869 8.28981 8.59576 8.09289 8.79268C7.89598 8.98959 7.62891 9.10021 7.35043 9.10021C7.07195 9.10021 6.80488 8.98959 6.60797 8.79268C6.41105 8.59576 6.30043 8.32869 6.30043 8.05021C6.30043 7.77174 6.41105 7.50467 6.60797 7.30775C6.80488 7.11084 7.07195 7.00021 7.35043 7.00021Z" fill="#96C0FF"/>
<path d="M4.9 4.1999C5.2713 4.1999 5.6274 4.0524 5.88995 3.78985C6.1525 3.5273 6.3 3.17121 6.3 2.7999C6.3 2.4286 6.1525 2.0725 5.88995 1.80995C5.6274 1.5474 5.2713 1.3999 4.9 1.3999C4.5287 1.3999 4.1726 1.5474 3.91005 1.80995C3.6475 2.0725 3.5 2.4286 3.5 2.7999C3.5 3.17121 3.6475 3.5273 3.91005 3.78985C4.1726 4.0524 4.5287 4.1999 4.9 4.1999ZM12.6 5.5999C12.9713 5.5999 13.3274 5.4524 13.5899 5.18985C13.8525 4.9273 14 4.57121 14 4.1999C14 3.8286 13.8525 3.4725 13.5899 3.20995C13.3274 2.9474 12.9713 2.7999 12.6 2.7999C12.2287 2.7999 11.8726 2.9474 11.6101 3.20995C11.3475 3.4725 11.2 3.8286 11.2 4.1999C11.2 4.57121 11.3475 4.9273 11.6101 5.18985C11.8726 5.4524 12.2287 5.5999 12.6 5.5999ZM14 11.1999C14 10.8286 13.8525 10.4725 13.5899 10.21C13.3274 9.9474 12.9713 9.7999 12.6 9.7999C12.2287 9.7999 11.8726 9.9474 11.6101 10.21C11.3475 10.4725 11.2 10.8286 11.2 11.1999C11.2 11.5712 11.3475 11.9273 11.6101 12.1899C11.8726 12.4524 12.2287 12.5999 12.6 12.5999C12.9713 12.5999 13.3274 12.4524 13.5899 12.1899C13.8525 11.9273 14 11.5712 14 11.1999ZM1.4 9.4499C1.7713 9.4499 2.1274 9.3024 2.38995 9.03985C2.6525 8.7773 2.8 8.42121 2.8 8.0499C2.8 7.6786 2.6525 7.3225 2.38995 7.05995C2.1274 6.7974 1.7713 6.6499 1.4 6.6499C1.0287 6.6499 0.672601 6.7974 0.410051 7.05995C0.1475 7.3225 0 7.6786 0 8.0499C0 8.42121 0.1475 8.7773 0.410051 9.03985C0.672601 9.3024 1.0287 9.4499 1.4 9.4499Z" fill="#2B7FFF"/>
</svg>
