<svg width="88" height="83" viewBox="0 0 88 83" fill="none" xmlns="http://www.w3.org/2000/svg">
<g clip-path="url(#clip0_2084_918)">
<path d="M46.5879 2.33301C68.6472 2.33301 86.5 20.0294 86.5 41.833C86.5 63.6366 68.6472 81.333 46.5879 81.333C35.492 81.3329 25.4668 76.8525 18.2324 69.623C20.6867 67.0608 22.2061 63.6005 22.2061 59.7705C22.2061 56.8674 21.3165 54.026 19.6543 51.6445L19.3115 51.1748L13.1016 42.9775V42.9766L8.95996 37.5156L7.76465 35.9395L6.97656 36.9766C9.39422 17.4614 26.1922 2.33318 46.5879 2.33301ZM46.5879 55.708C39.8611 55.7081 35.0298 58.8679 32.1758 61.8818L31.9062 62.1729V62.1738L30.1748 64.0791L29.1562 65.2012L30.2881 66.208L34.1377 69.6357L35.2471 70.623L36.2461 69.5234L37.9756 67.6172L37.9766 67.6182C39.6579 65.7687 42.4981 63.8331 46.5879 63.833C50.678 63.833 53.5188 65.7686 55.2002 67.6182V67.6172L56.9307 69.5234L57.9297 70.623L59.0381 69.6357L62.8887 66.208L64.0205 65.2012L63.002 64.0791L61.2705 62.1738V62.1729C58.4561 59.075 53.5318 55.708 46.5879 55.708ZM9.80371 52.1396L9.80469 52.1406L12.7812 56.0645C13.5894 57.1369 14.0293 58.4371 14.0293 59.7705C14.0293 61.63 13.1888 63.317 11.8574 64.4561C10.7578 65.3892 9.335 65.958 7.76465 65.958C4.29217 65.958 1.5 63.1721 1.5 59.7705C1.5 58.4371 1.93992 57.1369 2.74805 56.0645L7.08301 50.3467L7.08496 50.3447L7.76465 49.4443L9.80371 52.1396ZM33.582 37.7705C31.9265 37.7706 30.3319 38.3808 29.1064 39.4795L28.8662 39.7061C27.6128 40.9473 26.9062 42.6338 26.9062 44.3955C26.9062 46.0473 27.527 47.6332 28.6377 48.8477L28.8662 49.085C30.1193 50.3256 31.8162 51.0204 33.582 51.0205C35.3479 51.0205 37.0446 50.3257 38.2979 49.085C39.5515 47.8437 40.2588 46.1574 40.2588 44.3955C40.2588 42.6336 39.5515 40.9473 38.2979 39.7061C37.0446 38.4653 35.3479 37.7705 33.582 37.7705ZM59.4648 37.7705C57.8093 37.7705 56.2147 38.3809 54.9893 39.4795L54.749 39.7061C53.4954 40.9473 52.7881 42.6337 52.7881 44.3955C52.7881 46.0474 53.4097 47.6331 54.5205 48.8477L54.749 49.085C56.0022 50.3257 57.6989 51.0205 59.4648 51.0205C61.1204 51.0205 62.715 50.4102 63.9404 49.3115L64.1807 49.085C65.4342 47.8437 66.1416 46.1573 66.1416 44.3955C66.1416 42.7437 65.5199 41.1579 64.4092 39.9434L64.1807 39.7061C62.9275 38.4653 61.2307 37.7705 59.4648 37.7705ZM33.8857 21.7725L32.0576 23.582L30.8633 24.7646C28.204 27.3835 24.831 29.1811 21.165 29.9346L20.4385 30.0693L20.0342 30.1338L20.0283 30.1348L17.4717 30.5508L15.9824 30.7939L16.2344 32.2822L17.0918 37.3428L17.3408 38.8125L18.8115 38.5732L21.3613 38.1572L21.7656 38.0938L21.7754 38.0918C27.2265 37.1896 32.2632 34.6815 36.2451 30.8896L36.627 30.5186L37.8242 29.334L39.6523 27.5244L40.7295 26.458L39.6523 25.3916L35.9961 21.7725L34.9414 20.7275L33.8857 21.7725ZM57.1797 21.7725L53.5244 25.3916L52.4473 26.458L53.5244 27.5244L55.3516 29.334L56.5488 30.5186C60.4485 34.3951 65.4527 36.9941 70.875 37.999L71.4004 38.0918L71.4111 38.0938L71.8086 38.1553V38.1562L74.3643 38.5732L75.8359 38.8125L76.085 37.3428L76.9424 32.2822L77.1943 30.7939L75.7041 30.5508L73.1484 30.1348L73.1416 30.1338L72.7373 30.0693C69.0402 29.4698 65.6066 27.8007 62.8564 25.2822L62.3154 24.7676L61.1182 23.582L59.291 21.7725L58.2354 20.7275L57.1797 21.7725Z" stroke="#629AE3" stroke-width="3"/>
</g>
<defs>
<clipPath id="clip0_2084_918">
<rect width="88" height="82" fill="white" transform="translate(0 0.833008)"/>
</clipPath>
</defs>
</svg>
